<?xml version="1.0" encoding="utf-8"?>
<!-- Generator: Adobe Illustrator 23.0.3, SVG Export Plug-In . SVG Version: 6.00 Build 0)  -->
<svg version="1.1" xmlns="http://www.w3.org/2000/svg" xmlns:xlink="http://www.w3.org/1999/xlink" x="0px" y="0px"
	 viewBox="0 0 595.3 841.9" style="enable-background:new 0 0 595.3 841.9;" xml:space="preserve">
<style type="text/css">
	.st0{fill:#939393;}
	.st1{fill:#D38F4B;}
	.st2{opacity:0.3;fill:#FFFFFF;}
	.st3{fill:none;stroke:#FFFFFF;stroke-width:7;stroke-miterlimit:10;}
	.st4{fill:#7B9D7D;}
	.st5{fill:#7D5442;}
	.st6{fill:#644231;}
	.st7{fill:#D2C4B7;}
	.st8{fill:#3F3B3C;}
	.st9{fill:#EFB944;}
	.st10{fill:none;stroke:#000000;stroke-width:3;stroke-miterlimit:10;}
	.st11{fill:none;}
	.st12{fill:#9AB281;}
	.st13{fill:#41533B;}
	.st14{fill:#ADB353;}
	.st15{fill:#E2E1E2;}
	.st16{fill:none;stroke:#181918;stroke-miterlimit:10;}
	.st17{fill:#7D4545;}
	.st18{fill:#5E373A;}
	.st19{fill:#1B1917;}
	.st20{fill:#F1CCCD;}
	.st21{fill:#EAE5E8;}
	.st22{fill:none;stroke:#4C598B;stroke-width:6;stroke-linecap:round;stroke-miterlimit:10;}
	.st23{fill:none;stroke:#AA7756;stroke-width:6;stroke-linecap:round;stroke-miterlimit:10;}
	.st24{fill:#A8CA57;}
	.st25{fill:#D65B5C;}
	.st26{fill:#CD596E;}
	.st27{fill:#EBE876;}
	.st28{fill:#332E2D;}
	.st29{fill:#D45176;}
	.st30{fill:#D44E66;}
	.st31{fill:#947951;}
	.st32{fill:#B6AF9C;}
	.st33{fill:none;stroke:#000000;stroke-width:4;stroke-miterlimit:10;}
	.st34{fill:none;stroke:#000000;stroke-miterlimit:10;}
	.st35{fill:#3B3B68;}
	.st36{fill:#34545A;}
	.st37{fill:#161817;}
	.st38{fill:#9FA27C;}
</style>
<g id="background">
	<rect class="st0" width="595.3" height="841.9"/>
</g>
<g id="Слой_1">
	<g>
		<polygon class="st1" points="125.1,228.3 124,223.2 122.5,217.8 121.3,213.4 119.6,209.5 117.6,205.7 115,201.6 112.2,198.2 
			110.4,196.3 108.2,194.2 106.4,191.7 105.9,189.7 106,188 106.7,184.9 107.8,181.8 109.4,178 111,174.6 111.8,170.7 112.3,166.4 
			112.1,165.5 111.6,162.3 110.7,158.6 108.9,155.4 106.8,152.7 104.4,149.9 101.9,148 98.6,146.3 94.2,144.6 90.8,144 87,143.5 
			71,143.7 67.1,144 62.4,145.3 57.3,147.3 57.2,147.3 52.9,150 50,152.9 47.6,156.5 46,160 45.5,164.7 45.5,165.7 45.6,169.4 
			46.8,174.4 48.1,178.6 49.8,183 51.5,186 51.7,187.7 51.5,189.6 50.5,191.8 48.6,195.1 44.8,200.1 40.8,206.2 37.9,212.2 
			35.2,218.3 33.7,223.8 32.9,229.1 32.6,234.8 33.9,240.3 35.8,246.1 40.5,252.7 44.8,257.7 50.5,261.4 58.4,264.5 67.9,266.4 
			69.2,266.4 96.5,266.4 102.6,265.9 107.3,264 113.5,260.6 118.3,255.5 121.5,251.3 123.3,246.6 124.6,240.8 125.1,235.9 
			125.4,231.7 		"/>
		<g>
			<polygon class="st2" points="61.6,263.3 53.5,258 49,254.5 45.6,251.1 42.5,247.4 40.1,241.2 39.3,234.9 39.7,227.6 40.7,221.9 
				42.3,215 43.7,210.4 46,205.1 48.8,200.4 52.3,195.2 53.9,191.3 54.5,189.1 53.1,184.4 51.4,179.1 50,174.9 49,170 49,166 
				49.3,161 49.4,159.5 52.2,153 55.7,149.1 56.9,147.3 52.7,150 49.8,152.9 47.3,156.5 45.7,160 45.2,164.7 45.3,165.7 45.4,169.4 
				46.5,174.4 47.8,178.6 49.6,183 51.2,186 51.5,187.7 51.2,189.6 50.2,191.8 48.3,195.1 45.1,200.1 41.1,206.2 37.7,212.2 
				34.9,218.3 33.5,223.8 32.7,229.1 32.3,234.8 33.6,240.3 35.6,246.1 40.2,252.7 44.6,257.7 50.2,261.4 58.2,264.5 67.7,266.4 
				69,266.4 			"/>
		</g>
	</g>
	<path class="st3" d="M85.8,170.3c3.4,1.7,5.2,5.7,5.2,9.8c0,6.6-5.3,11.9-11.9,11.9c-6.6,0-11.9-5.3-11.9-11.9
		c0-4.2,2.2-7.9,5.4-10C72.7,170.2,78.5,166.7,85.8,170.3z"/>
	<polygon class="st4" points="101.1,231.7 56.2,231.7 56.3,225.6 101.2,225.6 	"/>
	<g id="XMLID_1_">
		<g>
			<path class="st5" d="M89.2,177.1c0,0,0.5,1.5,0.5,3.1c0,2.9-3.2,10.5-10.5,10.5c-7,0-10.5-7-10.5-10.5c0-1.6,0.5-3.1,0.5-3.1
				c0.6-2,1.7-3.3,2.4-4c4.6-3.1,12-3.5,16.3,1.1C88.7,175.5,89.2,177.1,89.2,177.1z"/>
			<polygon class="st6" points="89.5,228.2 89.6,232.2 69.2,232.2 69.5,228.2 			"/>
			<path class="st6" d="M87.1,145.7c0.2,9.1,0.5,19.3,0.7,28.4c-4.3-4.6-11.7-4.2-16.3-1.1c0-9.3,0-18.6,0-27.9l0.2-9.5l1.2-62
				l11.9,0l0.1,1.5L87.1,145.7z"/>
		</g>
		<g>
		</g>
	</g>
	<g id="XMLID_2_">
		<g>
			<polygon class="st7" points="84.8,69.5 84.7,73.6 72.7,73.7 72.9,69.5 			"/>
		</g>
		<g>
		</g>
	</g>
	<rect x="69.4" y="225.6" class="st4" width="20" height="1.2"/>
	<path class="st6" d="M86.7,43.5l-4-3l-9.2,0.1l-3.6,3.6l0.5,20.4l2.7,4.9h11.5l2.3-5.3L86.7,43.5z M75.4,67.9l-2.7-3.2l-0.1-19.1
		l2.2-3.1c0,0,2.5,2.9,2.4,2.7c-0.1-0.2,0.1,19.5,0.1,19.5L75.4,67.9z M82.4,67.8l-2.7-3.2l-0.1-19.1l2.2-3.1c0,0,2.5,2.9,2.4,2.7
		c-0.1-0.2,0.1,19.5,0.1,19.5L82.4,67.8z"/>
	<g>
		<g id="XMLID_3_">
			<g>
				<path class="st8" d="M251.4,113.9c1.2,1.3,1.7,3.3,0.8,4.7c-0.7-2.5-3.3-4.3-5.9-4.8c-2.6-0.5-5.3,0-7.8,0.7
					c-16.7,4.2-31.5,14-47.7,20.1c-5.3,2-9.4,3-15,3c-4.7,0-8-0.4-11.7-1.9c-4.6-2-10.7-4.9-15.1-8.7c-2.2-1.9-8.3-7.1-10.2-9.4
					c0,0-1.6-2.6-1.6-3.8c0.9,1.1,2.8,3,4,3.9c1.9,1.4,3.7,2.8,5.6,4.3c5,3.8,10,7.6,15.8,10.1c7.6,3.2,16.3,3.9,24.3,1.9
					c5.3-1.4,10.2-3.8,15.1-6.3c2.7-1.4,5.4-2.7,8.1-4.1c12.7-6.4,23.6-12.9,37.7-11.8C249.1,112.1,250.4,112.8,251.4,113.9z"/>
				<path class="st9" d="M199.2,91.7c10.2-2.1,14,0,14,0c10.4,7.9,21.9,14.3,33.9,19.5c0.2,0.1,0.5,0.2,0.7,0.3
					c-14.1-1.1-25.1,5.4-37.7,11.8c-2.7,1.4-5.4,2.7-8.1,4.1c-4.9,2.5-9.8,4.9-15.1,6.3c-8,2.1-16.7,1.4-24.3-1.9
					c-5.7-2.5-10.8-6.3-15.8-10.1c-1.9-1.4-3.7-2.8-5.6-4.3c-1.2-0.9-3.1-2.8-4-3.9c0,0,4.3-1.1,11.6-3.4
					c7.8-2.5,18.9-6.5,31.7-12.2C188.3,94.6,194.5,92.7,199.2,91.7z"/>
				<path class="st9" d="M209.4,77.7c2,5.3,3.8,10.5,3.8,14c0,0-3.7-2.2-14,0c0,0,0,0,0,0l-0.1-0.2c0,0,0,0,0,0l0,0c0,0,0,0,0-0.1
					l0,0c0,0,0-0.1-0.1-0.1c-1-2.2-3.5-7.7-5.4-12.8c-4.5-12.3-10.4-28.9-17.3-35.1l0.1-0.2c10.4,3.2,19.5,9.9,25.2,19.3
					C203.4,65.5,207.2,71.7,209.4,77.7z"/>
				<path class="st9" d="M199.2,91.7C199.2,91.7,199.2,91.7,199.2,91.7c-4.7,1-10.9,2.9-18.7,6.4c-12.8,5.7-23.9,9.6-31.7,12.2
					c-3.2-6.9-5.3-15.5-5.3-15.5c-12.9-40.6,2.4-51.1,2.9-51.5c0,0,0,0,0,0c1.7-0.6,3.5-1,5.3-1.4h0l7.3-0.9
					c5.6-0.3,11.2,0.4,16.5,1.9c0.2,0.1,0.5,0.1,0.7,0.2l-0.1,0.2c7,6.2,12.9,22.9,17.3,35.1c1.9,5.2,4.4,10.7,5.4,12.8
					c0,0,0,0.1,0.1,0.1l0,0c0,0,0,0.1,0,0.1l0,0c0,0,0,0,0,0L199.2,91.7z"/>
				<path class="st9" d="M159.6,39.2c0,0,1,0.9,0,1.6l-0.5,0.1c-0.8,0-1.6,0.1-2.4,0.2c-1.6,0.2-3.2,0.4-4.8,0.7h0c0,0-1-2,1.6-2.6
					C153.4,39.2,155.3,38.1,159.6,39.2z"/>
				<path class="st9" d="M159,40.9l-7.3,0.9c1.6-0.3,3.2-0.6,4.8-0.7C157.4,41,158.2,40.9,159,40.9z"/>
				<path class="st9" d="M143.6,94.7c0,0,2,8.7,5.3,15.5c-7.3,2.3-11.6,3.4-11.6,3.4l-2.6,0.1c-3.2,0.3-6.5,0.2-9.8,0.1
					c-3.6-0.2-5.9-0.8-8.1-3.6c-2.7-3.5-2.6-8.3-2.4-12.7c0.4-9,0.9-18,3.8-26.5c4.7-13.4,15.2-23.3,28.2-27.6
					C146,43.6,130.7,54.1,143.6,94.7z"/>
			</g>
			<g>
				<path class="st10" d="M148.8,110.2c7.8-2.5,18.9-6.5,31.7-12.2c7.8-3.5,13.9-5.4,18.7-6.4c10.2-2.1,14,0,14,0"/>
				<path class="st10" d="M148.8,110.2c-7.3,2.3-11.6,3.4-11.6,3.4"/>
				<line class="st10" x1="159" y1="40.9" x2="151.8" y2="41.8"/>
				<path class="st10" d="M146.5,43.2c-0.5,0.3-15.8,10.9-2.9,51.5c0,0,2,8.7,5.3,15.5"/>
				<path class="st10" d="M199.2,91.7L199.2,91.7C199.2,91.7,199.2,91.7,199.2,91.7l-0.1-0.2c0,0,0,0,0,0l0,0c0,0,0,0,0-0.1l0,0
					c0,0,0-0.1-0.1-0.1c-1-2.2-3.5-7.7-5.4-12.8c-4.5-12.3-10.4-28.9-17.3-35.1"/>
			</g>
		</g>
	</g>
	<path class="st11" d="M176.2,43.2"/>
	<g id="XMLID_4_">
		<g>
			<path class="st12" d="M203.8,208.7c0.2,5.1-3.3,5.2-3.3,5.2h-5V201h5C204.1,201,203.6,203.6,203.8,208.7z"/>
			<path class="st13" d="M200.4,189.6V201h-5h-9.5h-8.3h-8.7h-8.7h-8.5h-2.8v-11.4c4.1-18.3,19.7-21.4,19.7-21.4
				c7.5,8.1,12.2,0,12.2,0C198.2,173.1,200.4,189.6,200.4,189.6z M194,192.9l2.8-2.5l-3.7-0.7l-1.5-3.4l-1.8,3.3L186,190l2.6,2.7
				l-0.8,3.7l3.4-1.6l3.3,1.9L194,192.9z M177.6,192.6l2.8-2.5l-3.7-0.7l-1.5-3.4l-1.8,3.3l-3.7,0.4l2.6,2.7l-0.8,3.7l3.4-1.6
				l3.2,1.9L177.6,192.6z M160,192.3l2.3-2.8l-3.6-0.2l-1.9-3.1l-1.3,3.4l-3.5,0.8l2.8,2.3l-0.3,3.6l3-2l3.3,1.4L160,192.3z"/>
			<polygon class="st14" points="196.7,190.3 194,192.9 194.5,196.6 191.2,194.7 187.9,196.3 188.6,192.7 186,190 189.8,189.6 
				191.5,186.3 193.1,189.7 			"/>
			<rect x="185.9" y="201" class="st12" width="9.5" height="12.9"/>
			<rect x="177.6" y="201" class="st12" width="8.3" height="12.9"/>
			<path class="st15" d="M181.9,164.2c0,0,0.3,2.3-1,3.9c0,0-4.7,8.1-12.2,0c0,0-4.1-7.5,4.1-11C172.9,157.1,182,156.2,181.9,164.2z
				"/>
			<polygon class="st14" points="180.4,190.1 177.6,192.6 178.1,196.3 174.9,194.5 171.5,196.1 172.3,192.4 169.7,189.7 
				173.4,189.3 175.2,186 176.7,189.4 			"/>
			<rect x="168.9" y="201" class="st12" width="8.7" height="12.9"/>
			<rect x="160.3" y="201" class="st12" width="8.7" height="12.9"/>
			<polygon class="st14" points="162.3,189.6 160,192.3 160.9,195.8 157.6,194.4 154.5,196.4 154.8,192.8 152,190.5 155.5,189.7 
				156.8,186.3 158.7,189.4 			"/>
			<path class="st12" d="M160.3,201v12.9h-6.7c0,0-0.7,0.2-1.8,0.2l0-0.2V201H160.3z"/>
			<path class="st12" d="M151.8,213.9l0,0.2c-2.1,0.1-5.3-0.7-5.9-5.7c-1-7.5,3.1-7.5,3.1-7.5h2.8V213.9z"/>
		</g>
		<g>
			<line class="st16" x1="151.8" y1="201" x2="151.8" y2="213.9"/>
			<polyline class="st16" points="160.3,201 160.3,213.9 160.3,214.2 			"/>
			<line class="st16" x1="168.9" y1="201" x2="168.9" y2="213.9"/>
			<line class="st16" x1="177.6" y1="201" x2="177.6" y2="213.9"/>
			<line class="st16" x1="185.9" y1="201" x2="185.9" y2="213.9"/>
			<line class="st16" x1="195.4" y1="201" x2="195.4" y2="213.9"/>
		</g>
	</g>
	<path class="st17" d="M176.4,253.4h-5l-23.5,0.1c0,0-8.6-0.6-7.1-13.9c0,0-2.5-13.1,12.9-11.2c15.4,1.9,46.8-0.2,46.8-0.2
		s6.8,0.4,7.1,8.7l0.2,8.3c0,0-0.6,6.7-6.2,7.5C199,253.1,187.8,253.3,176.4,253.4z"/>
	<path class="st18" d="M201.5,252.7v18.5h-25.1v-17.8C187.8,253.3,199,253.1,201.5,252.7z"/>
	<path class="st18" d="M172,279.9h-24.1v-26.4l23.5-0.1"/>
	<polygon class="st19" points="172.9,287.6 171.1,287.6 171.1,279.9 171.2,253.4 173,253.4 172.9,280 	"/>
	<path class="st11" d="M147.9,253.6c0,0-8.6-0.9-7.1-13.9c0,0-2.5-13.1,12.9-11.2c15.4,1.9,46.8-0.2,46.8-0.2s6.8,0.4,7.1,8.7
		l0.2,8.3c0,0-0.6,6.7-6.2,7.5c-2.5,0.4-13.7,0.6-25.1,0.7h-5L147.9,253.6z"/>
	<rect x="147" y="253.6" class="st19" width="1.8" height="35.3"/>
	<polygon class="st19" points="153.1,287.6 151.4,287.6 151.4,280.8 147.9,280.8 147.9,279.1 153.1,279.1 	"/>
	<polygon class="st19" points="157.1,288.9 155.3,288.9 155.3,280.8 152.2,280.8 152.2,279.1 157.1,279.1 	"/>
	<polygon class="st19" points="160.8,288.9 159.1,288.9 159.1,280.8 156.2,280.8 156.2,279.1 160.8,279.1 	"/>
	<polygon class="st19" points="164.8,287.6 163,287.6 163,280.8 159.9,280.8 159.9,279.1 164.8,279.1 	"/>
	<polygon class="st19" points="168.7,287.6 166.9,287.6 166.9,280.8 163.9,280.8 163.9,279.1 168.7,279.1 	"/>
	<rect x="167.8" y="279.1" class="st19" width="4.2" height="1.8"/>
	<rect x="175.5" y="253.4" class="st19" width="1.8" height="26.5"/>
	<polygon class="st19" points="181.9,278.9 180.1,278.9 180.1,272.1 176.4,272.1 176.4,270.3 181.9,270.3 	"/>
	<polygon class="st19" points="186,278.9 184.2,278.9 184.2,272.1 181,272.1 181,270.3 186,270.3 	"/>
	<polygon class="st19" points="189.9,278.9 188.1,278.9 188.1,272.1 185.1,272.1 185.1,270.3 189.9,270.3 	"/>
	<polygon class="st19" points="194.3,278.9 192.5,278.9 192.5,272.1 189,272.1 189,270.3 194.3,270.3 	"/>
	<polygon class="st19" points="197.8,278.9 196.1,278.9 196.1,272.1 193.4,272.1 193.4,270.3 197.8,270.3 	"/>
	<rect x="200.6" y="252.7" class="st19" width="1.8" height="27.2"/>
	<rect x="196.9" y="270.3" class="st19" width="4.6" height="1.8"/>
	<g>
		<path class="st20" d="M183,389.5l-0.2-4.5l2.7,3.4c7-21.1-20.1-50.8-20.1-50.8c3.3,8.7,3.7,17.3,3.7,17.3
			C169.7,377.1,183,389.5,183,389.5z"/>
		<path class="st20" d="M233.8,356.3c0,0-3.1,4.1-6.5,3.9c-3.4-0.2-2.3-10.4-2.3-10.4s-2.5,3.3-7.3,12.6c-4.8,9.4-1.2,25.6-1.2,25.6
			s1.9-2.2,2.7-3.2c0-0.2,0.1-0.3,0.2-0.4c0.3-0.2,0.1,0-0.2,0.4c-0.3,1.3,1.2,4.7,1.2,4.7s2.8-5.6,8.1-11.4
			C233.7,372.4,233.8,356.3,233.8,356.3z"/>
		<path class="st11" d="M219.3,384.4c-0.1,0.1-0.2,0.2-0.2,0.4C219.4,384.4,219.6,384.1,219.3,384.4z"/>
		<g>
			<path class="st21" d="M206.6,398c0,0,0-0.1,0-0.1l-13.9,0.5c0.1,0.2,0.2,0.4,0.4,0.6l-10.1,4.4l10.8-0.1
				c5.3-1.5,9.9-1.3,13.8-0.1l10-0.1L206.6,398z"/>
			<path class="st11" d="M183,389.5l-0.2-4.5l2.7,3.4c7-21.1-20.1-50.8-20.1-50.8c3.3,8.7,3.7,17.3,3.7,17.3
				C169.7,377.1,183,389.5,183,389.5z"/>
			<path class="st11" d="M233.8,356.3c0,0-3.1,4.1-6.5,3.9c-3.4-0.2-2.3-10.4-2.3-10.4s-2.5,3.3-7.3,12.6
				c-4.8,9.4-1.2,25.6-1.2,25.6s1.9-2.2,2.7-3.2c-0.3,1.3,1.2,4.7,1.2,4.7s2.8-5.6,8.1-11.4C233.7,372.4,233.8,356.3,233.8,356.3z"
				/>
			<path class="st21" d="M183,403.3l10.1-4.4c-0.1-0.2-0.3-0.4-0.4-0.6l-0.2,0c0,0,0.1,0,0.2,0c-0.9-1.8-1-4.5-1-4.5
				c1-30.6-8.9-42.9-8.9-42.9c-16.5-27.8-20.9-25.2-20.9-25.2s-3.6,0.2-1.8,13.3c0,0-1.1,25.2,2.3,33c3.4,7.8,6.1,15.4,12.3,19.9
				c0,0,5.8,7.4,6.7,11.5c0,0,0,0,0,0L183,403.3z M169.1,354.9c0,0-0.5-8.6-3.7-17.3c0,0,27.1,29.8,20.1,50.8l-2.7-3.4l0.2,4.5
				C183,389.5,169.7,377.1,169.1,354.9z"/>
			<path class="st21" d="M232.8,380.2c8.9-18.4,6.6-30.1,6.6-30.1c6.3-15-6.6-12.1-6.6-12.1c-6-6.6-15,5.3-15,5.3
				s-10.7,18.3-9.2,28.6c1.4,9.7-1.5,24.2-1.9,25.9c0.1,0,0.1,0,0.2,0l-0.2,0c0,0.1,0,0.1,0,0.1l11.1,5.1l0.7,0
				c1.1-3.5,5.6-8.3,5.6-8.3C226.8,391.7,232.8,380.2,232.8,380.2z M219.1,384.8c-0.8,1-2.7,3.2-2.7,3.2s-3.6-16.2,1.2-25.6
				c4.8-9.4,7.3-12.6,7.3-12.6s-1.1,10.3,2.3,10.4c3.4,0.2,6.5-3.9,6.5-3.9s-0.1,16.1-5.4,21.8c-5.3,5.8-8.1,11.4-8.1,11.4
				S218.8,386.1,219.1,384.8z"/>
			<path class="st21" d="M206.6,397.9C206.6,397.9,206.6,397.9,206.6,397.9c-5.7-1-12.7,0.2-13.9,0.5c0,0,0,0,0,0L206.6,397.9z"/>
			<path class="st11" d="M192.7,398.4C192.7,398.4,192.7,398.4,192.7,398.4c-0.1,0-0.2,0-0.2,0L192.7,398.4z"/>
			<path class="st11" d="M206.8,397.9c-0.1,0-0.1,0-0.2,0c0,0,0,0,0,0L206.8,397.9z"/>
			<path class="st21" d="M181.4,403.4c0,0-11.8,10.1-13.5,21.1c-1.7,11,0.6,19.7,0.6,19.7s0.1,1.9,2.2,1.9c2.1,0,2.6-1.8,2.6-1.8
				l-1.2-6.1c0,0-2.9-26,19.4-34.1c0.8-0.3,1.5-0.5,2.3-0.7"/>
			<path class="st21" d="M207.5,403.1C219.1,406.5,225,418,225,418s6.3,7.3,3.2,23.6c0,0-1.3,3.7,1.6,4.9c2.9,1.1,2.8-3.2,2.8-3.2
				s4-18.9-4.4-30.1c0,0-6.9-9.2-9.9-10.1"/>
			<path class="st20" d="M200.4,436.8c0,0-2.1-1.7-4.4,0.1l8.9,0.1C204.4,436.2,203.1,435.9,200.4,436.8z"/>
			<path class="st21" d="M210.2,438.2c0,0-2-1.5-5.2-1.3h0c0.8,1.2-0.4,3.7-1.2,4.3c-1.3,1-3.4,1-3.4,1c-5.1-0.4-4.4-5.3-4.4-5.3
				s-8.1-1.1-9.4,8.9c-1.3,10,12.1,7.7,13.9,5.8c0,0,5.7,4.5,12-1C212.5,450.7,217.8,443.4,210.2,438.2z"/>
			<path class="st20" d="M200.4,442.2c0,0,2,0,3.4-1c0.8-0.6,2-3,1.2-4.3l-8.9-0.1C196.1,436.9,195.4,441.8,200.4,442.2z"/>
		</g>
	</g>
	<path class="st22" d="M68.3,453.3c0,0-24.3-20.4-22.4-50.5c1.9-30.1,34.3-34.5,34.3-34.5s38.4-1.2,42.3,36.2c0,0,1,28.2-24.1,47.4"
		/>
	<line class="st23" x1="56.8" y1="357.7" x2="64.8" y2="371"/>
	<line class="st23" x1="103.2" y1="371.5" x2="113.2" y2="356.8"/>
	<path class="st24" d="M36.1,334.5c0,0-11.2,8.3-11.4,13.9l13.6,5.8c0,0,3.2,15.8,5.8,17c2.7,1.2,12.7-14.1,12.7-14.1l18.7,1.9
		c0,0-7.8-16.5-9-17.3c-1.2-0.7,7.5-16.8,6.1-17.3s-18.5,2.2-18.5,2.2L39.5,316L36.1,334.5z"/>
	<polygon class="st25" points="42,349 29.1,344.7 42,337.6 42,323.5 51.9,332.5 64.8,328.6 60.8,340.8 70.1,352.7 54.6,351 
		45.8,363.6 	"/>
	<polygon class="st26" points="102.6,342 95.7,325 115.1,326.4 128.2,316 131.6,333 143.8,343 131.6,352 126.5,371.2 112.7,357.5 
		95,360.4 	"/>
	<polygon class="st27" points="108.8,341.7 101,328.6 115.1,332.8 125.8,322.3 127.3,337.4 139.9,343.6 126.8,348.3 125.3,363.6 
		115.4,351.7 101,354.1 	"/>
	<g id="XMLID_5_">
		<g>
			<path d="M330.1,192.1c0-10-8.1-18.1-18.1-18.1c-10,0-18.1,8.1-18.1,18.1c0,10,8.1,18.1,18.1,18.1
				C322,210.2,330.1,202.1,330.1,192.1z M226.4,178.7c1.3-0.2,2.5,0.3,13.1-5.9s28.3,0.6,32.8,6.6c0,0,1.7,2.7,3.4,2.1
				c1.7-0.5,5.2-4.6,12.4-0.1c0,0,2.3,1.3,4.9-1.9c0,0,15.2-15.3,36.7-1.6c0,0,0.2,0.5,4.3,2.1c4.1,1.6,3,8.3,2,8.1
				c-0.9-0.2-2.3,1.6-2.8,3.2c-0.5,1.6-1.1,21.7-23.5,21c0,0-16.6-2.9-21.4-19.5c0,0-0.7-5.3-7.4-5.3c-4.6,0-4.8,1.5-5.7,4.8
				c-0.9,3.4-6.7,20.2-25.9,19.5c-19.2-0.7-20.6-22.2-20.6-22.2s-1.3-3-3-3.5C224.1,185.5,225.1,178.9,226.4,178.7z M251.4,173.4
				c-9.9,0-17.9,8-17.9,17.9s8,17.9,17.9,17.9s17.9-8,17.9-17.9S261.3,173.4,251.4,173.4z"/>
		</g>
		<g>
		</g>
	</g>
	<g id="XMLID_6_">
		<g>
			<path d="M257.1,265.9c16.7,1.1,18.9-12.8,18.9-12.8s1.1-12.8-16.7-16.3s-21.1,0.9-21.1,0.9c-1.9,1.2,0,8.7,0,8.7
				S240.4,264.7,257.1,265.9z M315.4,265.9c16.7-1.1,18.9-19.4,18.9-19.4s1.9-7.5,0-8.7c0,0-3.3-4.4-21.1-0.9
				c-17.8,3.5-16.7,16.3-16.7,16.3S298.7,267,315.4,265.9z M345.6,233.4c0,0,3.5,0.2-10.7,23.5c0,0-14.1,18.3-33.3,8.3
				c0,0-5.8-2.5-10.9-13.8c-0.5-1.2-1.4-2.2-2.6-2.9c-1.2-0.7-2.9-1-4.8,0.1c-1.2,0.7-2,1.9-2.5,3.2c-1.4,3.9-6.7,15.6-20.7,16.3
				c-16.9,0.9-26.1-15.8-26.1-15.8s-10.7-16.5-7.4-20.2c5-2.8,30-4.3,48.9,5.2c0,0,2.3,2,10.5,2.8c0,0,10.6-1.5,22.7-6.9
				C320.8,228.1,346.9,230.6,345.6,233.4z M343,237.3c0-0.7-1.3-1.3-3-1.3c-1.6,0-3,0.6-3,1.3c0,0.7,1.3,1.3,3,1.3
				C341.7,238.6,343,238,343,237.3z M235.4,237.6c0-0.7-1.3-1.3-3-1.3c-1.6,0-3,0.6-3,1.3c0,0.7,1.3,1.3,3,1.3
				C234.1,238.9,235.4,238.3,235.4,237.6z"/>
		</g>
		<g>
		</g>
	</g>
	<path d="M242,303.1l10.4-1.1c0,0,7.3-3.6,19.2-3.6c0,0,31.2-5.7,52.4-18.5l1.6,2.1c0,0-14.8,12-46.5,21.1c0,0,5.5,13.6-8.2,20.8
		c0,0-12.3,5.5-20.8-6.6c0,0-2.2-1.3-2.2-9.6l-5.8-0.8V303.1z"/>
	<g id="XMLID_7_">
		<g>
			<path class="st28" d="M386.2,429.8c7.3,11.8-4.5,20.7-4.5,20.7c-20.5,14.8-56.1-7.3-56.1-7.3c-25,13.4-35.2,12.9-47.8,10.6
				c-12.6-2.2-19-15.4-13.2-23.1c5.9-7.7,14.3-3.5,12.9-3.5c-1.4,0-6.7,2.8-4.8,7.6c2,4.8,6.4,5.3,23.8-6.2c17.3-11.5,29,0,29,0
				c12.8-14.6,39.8,6.2,39.8,6.2s9.5,6.7,12.3,0c2.8-6.7-5.3-7.3-5.3-7.3C378.7,422.8,386.2,429.8,386.2,429.8z"/>
		</g>
		<g>
		</g>
	</g>
	<g id="XMLID_8_">
		<g>
			<path class="st29" d="M422.9,95.4c1.6,12.5-2.3,13.9-63.9,31.4c0,0-50.8,18.5-75.5,7.1c-24.7-11.3-14.3-27.5-14.3-27.5
				s7.4-14.1,28.6-29.1c-0.9,2.4,0,11.2,1.3,15.3c1.3,4.1,7.3,7.6,7.3,7.6v0.7c0,0,14.1,4.2,16.8,1.2h10.5c2.2,1.3,7,2.6,17.2,0
				c0,0,0.1-0.5,0.1-1.3c44-6.8,35.1-31.4,34.9-31.9C386.5,69.1,421.3,83.1,422.9,95.4z"/>
			<path class="st30" d="M386,68.9c0.2,0.5,9,25.1-34.9,31.9c0.2-2.5,0.2-7.9-2-12.5c0,0-1.5,0.1-3.7,0.4
				c1.7-0.4,38.2-8.9,39.8-22.8h0C385.6,67,385.8,68.1,386,68.9C386,68.9,386,68.9,386,68.9z"/>
			<path class="st31" d="M385.2,65.8L385.2,65.8c-1.7,13.9-38.1,22.4-39.8,22.8c0,0-0.1,0-0.1,0c-2.5,0.3-5.7,0.8-8.5,1.7
				c0,0,0,0,0,0c-9.7,1.8-18.8-0.5-19.2-0.6c0,0,0,0,0,0c-2.5-1.3-5.5-2.5-8.7-2.9l0-0.2c-9-1.6-11.1-9.2-11.1-9.2l0.2-3.2
				c0,0,8.3,13.2,50.3,4.2c32.4-6.9,35.8-13.9,35.6-16.8C384.5,63.1,384.9,64.6,385.2,65.8z"/>
			<path class="st32" d="M384,61.6c0.2,2.8-3.2,9.9-35.6,16.8c-42,9-50.3-4.2-50.3-4.2l1.4-23.3c0,0,14.1-18.2,42.9-18.2
				c28.8,0,35.5,10.2,35.5,10.2s3.2,9.5,5.7,17.4c0,0,0,0,0,0C383.7,60.7,383.9,61.1,384,61.6C384,61.6,384,61.6,384,61.6z"/>
			<path class="st30" d="M349.1,88.3c2.2,4.6,2.2,10,2,12.5c-0.1,0.8-0.1,1.3-0.1,1.3c-10.2,2.6-15.1,1.3-17.2,0
				c-1.3-0.8-1.7-1.6-1.7-1.6l-8.3,0.5c0,0.5-0.2,0.8-0.5,1.2c-2.8,3-16.8-1.2-16.8-1.2v-0.7V86.7c0.9,0,1.7,0.1,2.5,0.2
				c3.3,0.4,6.3,1.6,8.7,2.9c0,0,0,0,0,0c3.7,1.9,6,4,6,4l7.9-0.2c0.8-1.4,2.9-2.4,5.3-3.2c0,0,0,0,0,0c2.8-0.9,6.1-1.4,8.5-1.7
				c0,0,0,0,0.1,0C347.5,88.4,349.1,88.3,349.1,88.3z"/>
			<path class="st30" d="M333.7,102.1h-10.5c0.3-0.3,0.4-0.7,0.5-1.2l8.3-0.5C332,100.5,332.3,101.3,333.7,102.1z"/>
			<path class="st30" d="M336.8,90.4c-2.4,0.8-4.5,1.8-5.3,3.2l-7.9,0.2c0,0-2.4-2.1-6-4C318,89.9,327.2,92.2,336.8,90.4z"/>
			<path class="st30" d="M308.9,86.7l0,0.2c-0.8-0.1-1.7-0.2-2.5-0.2v13.6c0,0-6-3.4-7.3-7.6c-1.3-4.1-2.1-12.9-1.3-15.3
				C297.8,77.4,299.9,85,308.9,86.7z"/>
		</g>
		<g>
			<path class="st33" d="M384,61.6c0.5,1.5,0.9,3,1.2,4.3"/>
			<path class="st33" d="M345.3,88.6c-2.5,0.3-5.7,0.8-8.5,1.7"/>
			<path class="st33" d="M317.6,89.8c-2.5-1.3-5.5-2.5-8.7-2.9c-0.8-0.1-1.7-0.2-2.5-0.2v13.6v0.7c0,0,14.1,4.2,16.8,1.2
				c0.3-0.3,0.4-0.7,0.5-1.2l8.3-0.5c0,0,0.4,0.8,1.7,1.6c2.2,1.3,7,2.6,17.2,0c0,0,0.1-0.5,0.1-1.3c0.2-2.5,0.2-7.9-2-12.5
				c0,0-1.5,0.1-3.7,0.4"/>
			<path class="st33" d="M336.8,90.4c-2.4,0.8-4.5,1.8-5.3,3.2l-7.9,0.2c0,0-2.4-2.1-6-4"/>
			<path class="st33" d="M384,61.5c0-0.8-0.4-1.2-0.4-1.3"/>
			<path class="st33" d="M298,74.2c0,0,8.3,13.2,50.3,4.2c32.4-6.9,35.8-13.9,35.6-16.8"/>
			<path class="st33" d="M336.8,90.4C336.8,90.4,336.8,90.4,336.8,90.4c-9.7,1.8-18.8-0.5-19.2-0.6c0,0,0,0,0,0"/>
			<line class="st34" x1="323.2" y1="102.1" x2="333.7" y2="102.1"/>
			<path class="st33" d="M345.3,88.6C345.3,88.6,345.4,88.6,345.3,88.6c1.8-0.4,38.2-8.9,39.9-22.8"/>
			<path class="st33" d="M386,68.9c0.2,0.5,9,25.1-34.9,31.9"/>
			<path class="st33" d="M306.4,100.3c0,0-6-3.4-7.3-7.6c-1.3-4.1-2.1-12.9-1.3-15.3c0,0,2.1,7.6,11.1,9.2"/>
		</g>
	</g>
	<path class="st35" d="M355.6,408.8L355.6,408.8c2.7,0.2,5.1-1.9,5.3-4.6l2.7-38.2c0.2-2.7-1.9-5.1-4.6-5.3l0,0
		c-2.7-0.2-5.1,1.9-5.3,4.6l-2.7,38.2C350.8,406.2,352.9,408.6,355.6,408.8z"/>
	<path class="st36" d="M376.6,377.1c0,0-2.5,10.2-2,18.7C374.6,395.7,378.5,386.9,376.6,377.1z"/>
	<path class="st37" d="M366.1,364.5l-3.5,41.9c0,0,8.5,0.6,9.6-9.1s1.6-23.2,1.6-23.2S374,366.9,366.1,364.5z"/>
	<path class="st37" d="M324.2,316c3.5-0.3,11.8,1.7,23.4,6.9s9.7,9.7,9.7,9.7s4.4,14.6,9.1,16.8c4.7,2.2,4.9,4.4,4.9,4.4l1.7,12.7
		l-3.1-2c-6.1-1.4-5-4.2-5-4.2c-6.7-34.7-40.6-33.7-40.6-33.7h-5.6c0,0-33.9-0.9-40.6,33.7c0,0,1.1,2.8-5,4.2l-3.1,2l1.7-12.7
		c0,0,0.2-2.2,4.9-4.4c4.7-2.2,9.1-16.8,9.1-16.8s-1.9-4.6,9.7-9.7s19.9-7.2,23.4-6.9H324.2z"/>
	<path class="st35" d="M287.3,408.8L287.3,408.8c-2.7,0.2-5.1-1.9-5.3-4.6l-2.7-38.2c-0.2-2.7,1.9-5.1,4.6-5.3h0
		c2.7-0.2,5.1,1.9,5.3,4.6l2.7,38.2C292.1,406.2,290,408.6,287.3,408.8z"/>
	<path class="st36" d="M266.3,377.1c0,0,2.5,10.2,2,18.7C268.3,395.7,264.4,386.9,266.3,377.1z"/>
	<path class="st37" d="M276.8,364.5l3.5,41.9c0,0-8.5,0.6-9.6-9.1c-1.1-9.7-1.6-23.2-1.6-23.2S268.9,366.9,276.8,364.5z"/>
	<g id="XMLID_9_">
		<g>
			<path class="st38" d="M416.1,160.8c15.4,1.3,41.4,3.4,41.4,3.4s8.1-0.4,16-1.1c7.5-0.7,14.9-1.8,15.1-3.2c0-0.3,0.1-0.6,0.3-0.8
				c1.1-2,4.5-1.7-0.3-8.8c1,0.4,1.9,0.9,2.9,1.3c0,0,8,3.9,9.9,43.7c-1.9,8.9-20.8,15-57.9,17.9c-37.1,2.9-54.1-17.9-54.1-17.9
				s2.9-42.5,10.4-43.7c0,0-2.9,7.5,8.4,8.5C410.2,160.3,413,160.5,416.1,160.8z"/>
			<path class="st38" d="M457.5,164.2c0,0-26-2.2-41.4-3.4c-3.2-0.3-5.9-0.5-7.9-0.7c-11.3-1-8.4-8.5-8.4-8.5
				c7.4-1.2,31.5-26.9,88.9-1.3c4.8,7,1.4,6.8,0.3,8.8c-0.1,0.2-0.2,0.5-0.3,0.8c-0.2,1.4-7.6,2.5-15.1,3.2
				C465.6,163.8,457.5,164.2,457.5,164.2z"/>
			<path class="st38" d="M480.7,250.6c0,0-46.8,8.2-70.5,0c0,0-8.7-7-25.8-8c0,0-30.7-7.7-26.6-24.4c0,0-3.9-6.5,31.6-22.9
				c0,0,17,20.8,54.1,17.9c37.1-2.9,56-8.9,57.9-17.9c0,0,11.6,13.8,26.6,24.6C528.1,220,540.8,243.6,480.7,250.6z"/>
		</g>
		<g>
			<path class="st33" d="M399.8,151.6c0,0-2.9,7.5,8.4,8.5c1.9,0.2,4.7,0.4,7.9,0.7c15.4,1.3,41.4,3.4,41.4,3.4s8.1-0.4,16-1.1
				c7.5-0.7,14.9-1.8,15.1-3.2c0-0.3,0.1-0.6,0.3-0.8c1.1-2,4.5-1.7-0.3-8.8"/>
			<path class="st33" d="M450.3,168.1c0,0,6,12.8,14.5,17.1c8.4,4.3,11.1,11.5,11.1,11.5"/>
			<path class="st33" d="M479,152.9c0,0,6.4,3.1,9.9,6.2c1.6,1.5,2.7,2.9,2.2,4.2"/>
			<path class="st33" d="M453.7,143.7c0,0,9.2-2.2,15.2,1.9"/>
			<path class="st33" d="M423,158c0,0-3.8,0.7-6.9,2.7c-2.4,1.6-4.4,3.9-3.8,7.3"/>
			<path class="st33" d="M475.9,171.2c0,0-0.5-2.1-2.3-8.1"/>
			<path class="st33" d="M389.5,195.3c0,0,17,20.8,54.1,17.9c37.1-2.9,56-8.9,57.9-17.9"/>
		</g>
	</g>
</g>
</svg>
